<svg xmlns="http://www.w3.org/2000/svg" xmlns:xlink="http://www.w3.org/1999/xlink" width="1920" zoomAndPan="magnify" viewBox="0 0 1440 809.999993" height="1080" preserveAspectRatio="xMidYMid meet" version="1.0"><defs><filter x="0%" y="0%" width="100%" height="100%" id="c11df103ff"><feColorMatrix values="0 0 0 0 1 0 0 0 0 1 0 0 0 0 1 0 0 0 1 0" color-interpolation-filters="sRGB"></feColorMatrix></filter><filter x="0%" y="0%" width="100%" height="100%" id="4831d0bcf6"><feColorMatrix values="0 0 0 0 1 0 0 0 0 1 0 0 0 0 1 0.2126 0.7152 0.0722 0 0" color-interpolation-filters="sRGB"></feColorMatrix></filter><mask id="d1821f5f68"><g filter="url(#c11df103ff)"><g filter="url(#4831d0bcf6)" transform="matrix(0.151875, 0, 0, 0.151862, 432.594656, 537.528155)"><image x="0" y="0" width="2326" height="173" preserveAspectRatio="xMidYMid meet"></image></g></g></mask></defs><path fill="#000000" d="M 762.441406 326.28125 C 760.078125 324.914062 755.65625 322.765625 754.289062 322.324219 C 739.085938 317.449219 722.097656 330.183594 731.550781 342.652344 C 752.976562 369.421875 881.585938 350.722656 931.039062 364.222656 C 963.832031 373.179688 997.9375 406.921875 969.488281 460.976562 C 933.1875 529.960938 858.847656 607.753906 858.847656 607.753906 L 755.828125 607.753906 C 755.828125 607.753906 898.390625 514.382812 944.859375 439.894531 C 967.785156 403.144531 916.59375 380.480469 873.300781 378.71875 C 830.007812 376.957031 767.816406 378.070312 737.246094 367.328125 C 711.457031 358.265625 709.613281 339.761719 712.464844 331.769531 C 719.753906 311.351562 736.285156 305.160156 752.992188 309.316406 C 752.992188 309.316406 765.109375 313.117188 766.757812 313.644531 C 774.769531 316.207031 776.214844 317.214844 779.59375 317.9375 C 782.972656 318.664062 786.304688 319.023438 789.585938 319.023438 C 794.222656 319.023438 797.675781 318.226562 799.941406 316.636719 C 802.210938 315.042969 803.347656 312.941406 803.347656 310.335938 C 803.347656 308.113281 802.597656 306.402344 801.101562 305.195312 C 799.605469 303.988281 797.359375 303.09375 794.367188 302.515625 L 779.882812 299.761719 C 773.894531 298.605469 769.332031 296.40625 766.195312 293.171875 C 763.058594 289.9375 761.488281 285.761719 761.488281 280.644531 C 761.488281 276.011719 762.769531 272.003906 765.328125 268.625 C 767.886719 265.246094 771.433594 262.640625 775.972656 260.804688 C 780.511719 258.96875 785.726562 258.050781 791.613281 258.050781 C 795.863281 258.050781 799.847656 258.511719 803.5625 259.429688 C 807.28125 260.347656 810.878906 261.769531 814.355469 263.699219 C 815.804688 264.472656 816.792969 265.488281 817.324219 266.742188 C 817.855469 267.996094 817.976562 269.277344 817.6875 270.582031 C 817.394531 271.882812 816.816406 273.042969 815.949219 274.054688 C 815.078125 275.070312 813.992188 275.699219 812.6875 275.9375 C 811.386719 276.179688 809.914062 275.914062 808.269531 275.140625 C 805.277344 273.597656 802.40625 272.488281 799.652344 271.8125 C 796.902344 271.136719 794.269531 270.796875 791.757812 270.796875 C 787.027344 270.796875 783.527344 271.617188 781.257812 273.257812 C 778.988281 274.902344 777.855469 277.074219 777.855469 279.777344 C 777.855469 281.804688 778.53125 283.492188 779.882812 284.84375 C 781.234375 286.195312 783.3125 287.113281 786.109375 287.597656 L 800.59375 290.347656 C 806.871094 291.507812 811.625 293.632812 814.863281 296.722656 C 818.097656 299.8125 819.714844 303.960938 819.714844 309.175781 C 819.714844 316.222656 816.960938 321.75 811.457031 325.757812 C 805.953125 329.765625 798.617188 331.769531 789.441406 331.769531 C 785.289062 331.769531 779.53125 331.636719 774.894531 330.769531 C 770.261719 329.898438 766.109375 328.402344 762.4375 326.28125 Z M 762.441406 326.28125 " fill-opacity="1" fill-rule="evenodd"></path><path fill="#000000" d="M 762.441406 326.28125 C 760.078125 324.914062 755.65625 322.765625 754.289062 322.324219 C 739.085938 317.449219 722.097656 330.183594 731.550781 342.652344 C 752.976562 369.421875 881.585938 350.722656 931.039062 364.222656 C 963.832031 373.179688 997.9375 406.921875 969.488281 460.976562 C 933.1875 529.960938 858.847656 607.753906 858.847656 607.753906 L 755.828125 607.753906 C 755.828125 607.753906 898.390625 514.382812 944.859375 439.894531 C 967.785156 403.144531 916.59375 380.480469 873.300781 378.71875 C 830.007812 376.957031 767.816406 378.070312 737.246094 367.328125 C 711.457031 358.265625 709.613281 339.761719 712.464844 331.769531 C 719.753906 311.351562 736.285156 305.160156 752.992188 309.316406 C 752.992188 309.316406 765.109375 313.117188 766.757812 313.644531 C 774.769531 316.207031 776.214844 317.214844 779.59375 317.9375 C 782.972656 318.664062 786.304688 319.023438 789.585938 319.023438 C 794.222656 319.023438 797.675781 318.226562 799.941406 316.636719 C 802.210938 315.042969 803.347656 312.941406 803.347656 310.335938 C 803.347656 308.113281 802.597656 306.402344 801.101562 305.195312 C 799.605469 303.988281 797.359375 303.09375 794.367188 302.515625 L 779.882812 299.761719 C 773.894531 298.605469 769.332031 296.40625 766.195312 293.171875 C 763.058594 289.9375 761.488281 285.761719 761.488281 280.644531 C 761.488281 276.011719 762.769531 272.003906 765.328125 268.625 C 767.886719 265.246094 771.433594 262.640625 775.972656 260.804688 C 780.511719 258.96875 785.726562 258.050781 791.613281 258.050781 C 795.863281 258.050781 799.847656 258.511719 803.5625 259.429688 C 807.28125 260.347656 810.878906 261.769531 814.355469 263.699219 C 815.804688 264.472656 816.792969 265.488281 817.324219 266.742188 C 817.855469 267.996094 817.976562 269.277344 817.6875 270.582031 C 817.394531 271.882812 816.816406 273.042969 815.949219 274.054688 C 815.078125 275.070312 813.992188 275.699219 812.6875 275.9375 C 811.386719 276.179688 809.914062 275.914062 808.269531 275.140625 C 805.277344 273.597656 802.40625 272.488281 799.652344 271.8125 C 796.902344 271.136719 794.269531 270.796875 791.757812 270.796875 C 787.027344 270.796875 783.527344 271.617188 781.257812 273.257812 C 778.988281 274.902344 777.855469 277.074219 777.855469 279.777344 C 777.855469 281.804688 778.53125 283.492188 779.882812 284.84375 C 781.234375 286.195312 783.3125 287.113281 786.109375 287.597656 L 800.59375 290.347656 C 806.871094 291.507812 811.625 293.632812 814.863281 296.722656 C 818.097656 299.8125 819.714844 303.960938 819.714844 309.175781 C 819.714844 316.222656 816.960938 321.75 811.457031 325.757812 C 805.953125 329.765625 798.617188 331.769531 789.441406 331.769531 C 785.289062 331.769531 779.53125 331.636719 774.894531 330.769531 C 770.261719 329.898438 766.109375 328.402344 762.4375 326.28125 Z M 764.34375 322.992188 C 767.65625 324.914062 771.410156 326.253906 775.59375 327.039062 C 780.007812 327.863281 785.492188 327.972656 789.441406 327.972656 C 797.671875 327.972656 804.285156 326.285156 809.222656 322.691406 C 813.703125 319.425781 815.917969 314.914062 815.917969 309.175781 C 815.917969 305.125 814.753906 301.867188 812.238281 299.464844 C 809.453125 296.804688 805.3125 295.082031 799.90625 294.082031 L 799.886719 294.078125 L 785.441406 291.335938 C 781.710938 290.6875 779.003906 289.332031 777.199219 287.53125 C 775.128906 285.457031 774.058594 282.882812 774.058594 279.777344 C 774.058594 275.804688 775.699219 272.59375 779.035156 270.183594 C 781.792969 268.1875 786.003906 267 791.761719 267 C 794.558594 267 797.492188 267.371094 800.558594 268.125 C 803.558594 268.859375 806.6875 270.058594 809.949219 271.734375 C 810.71875 272.09375 811.386719 272.320312 811.996094 272.207031 C 812.425781 272.125 812.78125 271.917969 813.066406 271.585938 C 813.523438 271.050781 813.828125 270.441406 813.980469 269.757812 C 814.09375 269.234375 814.039062 268.722656 813.828125 268.222656 C 813.613281 267.714844 813.152344 267.363281 812.566406 267.050781 C 812.550781 267.039062 812.53125 267.03125 812.511719 267.019531 C 809.335938 265.253906 806.050781 263.953125 802.65625 263.113281 C 799.21875 262.265625 795.539062 261.847656 791.617188 261.847656 C 786.261719 261.847656 781.519531 262.65625 777.394531 264.324219 C 773.550781 265.878906 770.523438 268.054688 768.355469 270.917969 C 766.285156 273.648438 765.285156 276.898438 765.285156 280.644531 C 765.285156 284.671875 766.453125 287.984375 768.921875 290.527344 C 771.589844 293.277344 775.511719 295.046875 780.601562 296.035156 L 795.074219 298.785156 L 795.089844 298.785156 C 798.839844 299.511719 801.609375 300.726562 803.484375 302.238281 C 805.855469 304.148438 807.144531 306.816406 807.144531 310.335938 C 807.144531 314.214844 805.503906 317.371094 802.125 319.742188 C 799.367188 321.675781 795.21875 322.820312 789.585938 322.820312 C 786.042969 322.820312 782.445312 322.433594 778.796875 321.648438 C 775.324219 320.90625 773.832031 319.894531 765.601562 317.261719 C 764.050781 316.765625 753.183594 313.355469 751.964844 312.976562 C 744.570312 311.15625 737.214844 311.550781 730.902344 314.71875 C 724.53125 317.917969 719.296875 323.925781 716.042969 333.046875 C 713.539062 340.0625 715.867188 355.792969 738.507812 363.746094 C 768.824219 374.402344 830.519531 373.175781 873.457031 374.925781 C 895.820312 375.835938 920.203125 382.222656 936.054688 393.050781 C 946.277344 400.035156 953.007812 408.894531 954.152344 419.167969 C 954.921875 426.066406 953.210938 433.683594 948.082031 441.902344 C 908.917969 504.683594 801.984375 580.847656 768.246094 603.957031 L 857.214844 603.957031 C 866.566406 594.023438 932.636719 522.851562 966.128906 459.210938 C 976.914062 438.714844 978.371094 421.324219 974.058594 407.261719 C 967.628906 386.304688 948.566406 372.945312 930.039062 367.886719 C 895.566406 358.472656 822.460938 364.859375 774.386719 360.34375 C 761.574219 359.140625 750.480469 357.160156 742.21875 354.003906 C 736.140625 351.683594 731.515625 348.683594 728.589844 345.023438 C 728.566406 344.996094 728.546875 344.972656 728.527344 344.945312 C 723.515625 338.335938 724.222656 331.667969 728.027344 326.464844 C 733.132812 319.484375 744.644531 315.246094 755.449219 318.710938 C 756.9375 319.1875 761.769531 321.503906 764.34375 322.992188 Z M 764.34375 322.992188 " fill-opacity="1" fill-rule="evenodd"></path><path stroke-linecap="round" transform="matrix(0.151875, 0, 0, 0.151862, 321.250243, 81.002051)" fill-opacity="1" fill="#ffffff" fill-rule="evenodd" stroke-linejoin="round" d="M 2887.730028 1564.984915 L 2897.092168 1542.760816 Z M 2887.730028 1564.984915 " stroke="#000000" stroke-width="12.5" stroke-opacity="1" stroke-miterlimit="1.5"></path><path fill="#ffffff" d="M 815.945312 607.753906 L 798.84375 607.753906 C 798.84375 607.753906 932.949219 483.132812 948.171875 457.441406 C 959.816406 437.777344 963.214844 419.101562 957.855469 405.105469 C 954.660156 396.765625 947.855469 389.640625 936.84375 383.898438 C 920.035156 375.140625 898.6875 370.996094 860.253906 369.425781 C 818.382812 367.714844 787.191406 368.066406 779.667969 367.601562 C 755.84375 366.136719 739.503906 361.9375 729.726562 355.835938 C 719.609375 349.523438 716.34375 341.179688 718.890625 331.632812 C 720.839844 324.332031 730.535156 313.609375 740.222656 313.46875 C 753.480469 313.277344 759.824219 318.664062 759.824219 318.664062 C 759.824219 318.664062 751.601562 315.390625 741.308594 316.027344 C 733.777344 316.488281 725.976562 323.167969 723.609375 331.769531 C 721.210938 340.488281 724.96875 348.207031 734.226562 353.980469 C 743.824219 359.972656 756.542969 362.597656 779.933594 364.035156 C 787.453125 364.5 818.632812 364.144531 860.484375 365.859375 C 899.300781 367.445312 921.808594 371.394531 938.785156 380.242188 C 950.292969 386.242188 958.566406 393.734375 961.90625 402.453125 C 967.433594 416.886719 965.617188 445.980469 951.171875 464.605469 C 896.714844 534.816406 815.945312 607.753906 815.945312 607.753906 Z M 815.945312 607.753906 " fill-opacity="1" fill-rule="evenodd"></path><path fill="#ffffff" d="M 815.945312 607.753906 L 798.84375 607.753906 C 798.84375 607.753906 932.949219 483.132812 948.171875 457.441406 C 959.816406 437.777344 963.214844 419.101562 957.855469 405.105469 C 954.660156 396.765625 947.855469 389.640625 936.84375 383.898438 C 920.035156 375.140625 898.6875 370.996094 860.253906 369.425781 C 818.382812 367.714844 787.191406 368.066406 779.667969 367.601562 C 755.84375 366.136719 739.503906 361.9375 729.726562 355.835938 C 719.609375 349.523438 716.34375 341.179688 718.890625 331.632812 C 720.839844 324.332031 730.535156 313.609375 740.222656 313.46875 C 753.480469 313.277344 759.824219 318.664062 759.824219 318.664062 C 759.824219 318.664062 751.601562 315.390625 741.308594 316.027344 C 733.777344 316.488281 725.976562 323.167969 723.609375 331.769531 C 721.210938 340.488281 724.96875 348.207031 734.226562 353.980469 C 743.824219 359.972656 756.542969 362.597656 779.933594 364.035156 C 787.453125 364.5 818.632812 364.144531 860.484375 365.859375 C 899.300781 367.445312 921.808594 371.394531 938.785156 380.242188 C 950.292969 386.242188 958.566406 393.734375 961.90625 402.453125 C 967.433594 416.886719 965.617188 445.980469 951.171875 464.605469 C 896.714844 534.816406 815.945312 607.753906 815.945312 607.753906 Z M 815.886719 607.601562 C 818.003906 605.683594 897.332031 533.773438 951.050781 464.511719 C 965.460938 445.929688 967.277344 416.910156 961.761719 402.507812 C 958.4375 393.820312 950.183594 386.355469 938.714844 380.378906 C 921.753906 371.535156 899.261719 367.597656 860.476562 366.011719 C 818.625 364.296875 787.445312 364.652344 779.925781 364.1875 C 756.496094 362.746094 743.757812 360.109375 734.144531 354.109375 C 724.820312 348.292969 721.046875 340.511719 723.464844 331.730469 C 725.847656 323.0625 733.710938 316.339844 741.300781 315.875 C 749.488281 315.371094 756.371094 317.328125 758.871094 318.164062 C 756.742188 316.761719 750.621094 313.46875 740.226562 313.621094 C 735.414062 313.691406 730.609375 316.390625 726.757812 319.976562 C 722.902344 323.566406 720.003906 328.042969 719.035156 331.671875 C 716.507812 341.15625 719.757812 349.4375 729.808594 355.707031 C 739.570312 361.800781 755.886719 365.984375 779.675781 367.449219 C 787.199219 367.914062 818.390625 367.5625 860.257812 369.273438 C 898.726562 370.847656 920.089844 374.996094 936.914062 383.765625 C 947.964844 389.527344 954.789062 396.679688 957.996094 405.050781 C 963.367188 419.082031 959.976562 437.808594 948.300781 457.519531 C 933.484375 482.527344 806.035156 601.269531 799.230469 607.601562 Z M 815.886719 607.601562 " fill-opacity="1" fill-rule="evenodd"></path><path stroke-linecap="butt" transform="matrix(0.151875, 0, 0, 0.151862, 321.250243, 81.002051)" fill-opacity="1" fill="#000000" fill-rule="nonzero" stroke-linejoin="round" d="M 788.93877 1613.600132 C 771.757699 1613.600132 757.92025 1608.73861 747.426422 1598.989844 C 736.906874 1589.241078 728.49638 1573.884843 722.117779 1552.895416 L 522.606452 888.461732 C 515.610567 864.462792 517.025176 844.219313 526.90172 827.731295 C 536.752543 811.243277 553.470651 803.012129 577.004603 803.012129 C 594.211394 803.012129 607.56016 807.693594 617.102341 817.056525 C 626.644523 826.419456 634.283412 841.235522 640.019009 861.453278 L 811.855438 1461.812622 L 773.660991 1461.812622 L 953.136309 862.585061 C 959.51491 842.341582 967.462441 827.371182 977.004623 817.622416 C 986.546804 807.873651 998.969645 803.012129 1014.247423 803.012129 C 1029.525202 803.012129 1041.61368 807.873651 1050.512857 817.622416 C 1059.437755 827.371182 1067.050924 842.727417 1073.429525 863.716844 L 1247.169246 1461.812622 L 1213.75875 1461.812622 L 1388.450117 861.453278 C 1394.185714 841.981469 1401.824603 827.371182 1411.366785 817.622416 C 1420.908966 807.873651 1433.94909 803.012129 1450.512877 803.012129 C 1470.883249 803.012129 1485.826665 811.243277 1495.368847 827.731295 C 1504.911028 844.219313 1506.197036 864.462792 1499.201151 888.43601 L 1297.760812 1554.001477 C 1291.407931 1574.244956 1283.126037 1589.241078 1272.940852 1598.989844 C 1262.755666 1608.73861 1249.072538 1613.600132 1231.891467 1613.600132 C 1214.710396 1613.600132 1201.027268 1608.73861 1190.842082 1598.989844 C 1180.656897 1589.241078 1172.400723 1573.884843 1166.022122 1552.895416 L 999.921291 995.260875 L 1021.886312 995.260875 L 853.856469 1554.001477 C 847.503588 1574.244956 839.376015 1589.241078 829.525192 1598.989844 C 819.648648 1608.73861 806.119841 1613.600132 788.93877 1613.600132 Z M 788.93877 1613.600132 " stroke="#000000" stroke-width="79.169998" stroke-opacity="1" stroke-miterlimit="2"></path><path stroke-linecap="butt" transform="matrix(0.151875, 0, 0, 0.151862, 321.250243, 81.002051)" fill-opacity="1" fill="#000000" fill-rule="nonzero" stroke-linejoin="round" d="M 1640.276261 1649.379902 C 1621.191898 1649.379902 1606.582844 1644.132545 1596.397658 1633.637832 C 1586.238193 1623.143119 1581.1456 1608.044107 1581.1456 1588.340797 L 1581.1456 1021.857771 C 1581.1456 1002.154461 1586.238193 987.209783 1596.397658 977.04946 C 1606.582844 966.863415 1621.191898 961.770392 1640.276261 961.770392 C 1659.360624 961.770392 1674.124 966.863415 1684.617827 977.04946 C 1695.111655 987.209783 1700.358569 1002.154461 1700.358569 1021.857771 L 1700.358569 1268.869372 L 1687.009803 1268.869372 C 1701.001573 1235.173111 1722.760833 1209.579386 1752.339024 1192.088197 C 1781.891495 1174.597008 1815.430591 1165.851413 1852.956313 1165.851413 C 1890.456315 1165.851413 1921.294794 1172.847889 1945.44603 1186.84084 C 1969.622986 1200.833791 1987.729982 1221.977552 1999.81846 1250.272123 C 2011.881218 1278.566693 2017.925457 1314.320742 2017.925457 1357.55999 L 2017.925457 1588.340797 C 2017.925457 1608.044107 2012.832864 1623.143119 2002.673399 1633.637832 C 1992.488213 1644.132545 1977.879159 1649.379902 1958.794796 1649.379902 C 1939.736153 1649.379902 1924.947057 1644.132545 1914.45323 1633.637832 C 1903.959402 1623.143119 1898.712488 1608.044107 1898.712488 1588.340797 L 1898.712488 1363.270349 C 1898.712488 1327.027576 1891.896644 1300.662181 1878.213516 1284.122718 C 1864.556108 1267.583256 1843.414132 1259.326385 1814.787587 1259.326385 C 1779.833881 1259.326385 1752.004662 1270.284101 1731.351369 1292.225254 C 1710.698075 1314.166408 1700.358569 1343.258371 1700.358569 1379.475421 L 1700.358569 1588.340797 C 1700.358569 1629.033534 1680.32256 1649.379902 1640.276261 1649.379902 Z M 1640.276261 1649.379902 " stroke="#000000" stroke-width="2.08" stroke-opacity="1" stroke-miterlimit="2"></path><path stroke-linecap="butt" transform="matrix(0.151875, 0, 0, 0.151862, 321.250243, 81.002051)" fill-opacity="1" fill="#000000" fill-rule="nonzero" stroke-linejoin="round" d="M 2304.036583 1651.283355 C 2255.708391 1651.283355 2213.7588 1641.4317 2178.136371 1621.72839 C 2142.539661 1601.999358 2114.890483 1573.884843 2095.188836 1537.30768 C 2075.461468 1500.75624 2065.610645 1457.697048 2065.610645 1408.104382 C 2065.610645 1370.575493 2071.166201 1337.059288 2082.303032 1307.4786 C 2093.414144 1277.923635 2109.489248 1252.484244 2130.451183 1231.186149 C 2151.438838 1209.888054 2176.56744 1193.682982 2205.811269 1182.54521 C 2235.055098 1171.43316 2267.796869 1165.851413 2304.036583 1165.851413 C 2352.339054 1165.851413 2394.314365 1175.728791 2429.911075 1195.432101 C 2465.507784 1215.135411 2493.182683 1243.121313 2512.88433 1279.338364 C 2532.585977 1315.581136 2542.4368 1358.511717 2542.4368 1408.104382 C 2542.4368 1445.607549 2536.881245 1479.303811 2525.744413 1509.193166 C 2514.633301 1539.056799 2498.583918 1564.650524 2477.596262 1585.948619 C 2456.608607 1607.246714 2431.505725 1623.477509 2402.261896 1634.589558 C 2373.018068 1645.72733 2340.276296 1651.283355 2304.036583 1651.283355 Z M 2304.036583 1560.689285 C 2327.544814 1560.689285 2348.223828 1554.953203 2366.022183 1543.506763 C 2383.820537 1532.060324 2397.657987 1515.057859 2407.50881 1492.499369 C 2417.359634 1469.915158 2422.272185 1441.800643 2422.272185 1408.104382 C 2422.272185 1357.2256 2411.469716 1319.233708 2389.864776 1294.128707 C 2368.234117 1269.023706 2339.633292 1256.471206 2304.036583 1256.471206 C 2280.502631 1256.471206 2259.849338 1262.027231 2242.050983 1273.13928 C 2224.226908 1284.277052 2210.415179 1301.125183 2200.564355 1323.683672 C 2190.713532 1346.267884 2185.77526 1374.408121 2185.77526 1408.104382 C 2185.77526 1458.314384 2196.57773 1496.306275 2218.208389 1522.054335 C 2239.813328 1547.802394 2268.414153 1560.689285 2304.036583 1560.689285 Z M 2304.036583 1560.689285 " stroke="#000000" stroke-width="2.08" stroke-opacity="1" stroke-miterlimit="2"></path><path stroke-linecap="butt" transform="matrix(0.151875, 0, 0, 0.151862, 321.250243, 81.002051)" fill-opacity="1" fill="#000000" fill-rule="nonzero" stroke-linejoin="round" d="M 2574.664168 2854.754331 C 2542.3082 2854.754331 2509.977951 2852.362154 2477.621982 2847.577799 C 2445.291734 2842.793445 2414.787617 2835.462579 2386.109632 2825.533757 C 2357.431647 2815.604935 2331.711481 2803.283935 2308.923414 2788.596481 C 2295.703249 2779.773719 2286.49543 2769.124672 2281.351396 2756.623616 C 2276.207363 2744.12256 2274.561273 2731.801561 2276.387404 2719.68634 C 2278.239256 2707.545397 2283.023207 2696.89635 2290.739257 2687.713476 C 2298.455307 2678.504879 2308.20325 2672.820242 2319.957365 2670.608121 C 2331.711481 2668.396001 2344.571564 2671.714182 2358.537614 2680.536944 C 2390.893583 2699.64864 2425.075683 2713.615869 2461.083916 2722.43863 C 2497.117868 2731.261392 2534.977952 2735.659911 2574.664168 2735.659911 C 2632.740303 2735.659911 2674.998535 2725.936868 2701.464586 2706.439337 C 2727.930637 2686.967528 2741.150802 2661.78536 2741.150802 2630.918556 C 2741.150802 2605.196219 2731.788662 2584.978462 2713.038661 2570.265285 C 2694.28866 2555.577831 2662.138453 2543.436888 2616.562319 2533.893901 L 2495.266016 2508.531677 C 2425.435766 2493.8185 2373.42959 2469.022167 2339.24749 2434.091234 C 2305.065389 2399.186023 2287.987199 2353.04015 2287.987199 2295.705061 C 2287.987199 2259.69379 2295.317446 2226.974977 2310.029381 2197.574346 C 2324.741316 2168.173715 2345.49749 2142.811491 2372.323623 2121.487673 C 2399.149756 2100.189579 2431.145643 2083.830172 2468.259842 2072.435177 C 2505.374041 2061.040182 2546.371986 2055.329823 2591.202235 2055.329823 C 2635.31232 2055.329823 2677.21047 2060.860125 2716.896686 2071.869286 C 2756.608622 2082.904168 2792.256772 2099.083518 2823.866856 2120.407335 C 2835.620972 2128.484149 2843.517062 2138.412971 2847.555129 2150.168079 C 2851.618915 2161.923187 2852.519121 2173.498239 2850.332906 2184.893234 C 2848.120972 2196.288229 2842.976939 2206.036995 2834.875087 2214.113809 C 2826.798955 2222.216345 2816.690929 2226.974977 2804.551011 2228.466873 C 2792.436813 2229.933046 2778.650804 2226.254752 2763.218705 2217.43199 C 2736.006769 2201.998588 2708.460471 2190.963705 2680.528371 2184.353065 C 2652.596271 2177.742424 2622.452237 2174.424243 2590.096268 2174.424243 C 2556.29997 2174.424243 2527.261903 2179.208597 2502.982066 2188.751584 C 2478.727949 2198.320294 2460.18371 2211.721631 2447.297907 2229.007042 C 2434.437824 2246.292452 2428.007782 2266.690265 2428.007782 2290.200481 C 2428.007782 2316.668766 2436.829799 2337.786804 2454.473833 2353.606042 C 2472.117867 2369.399556 2502.261901 2381.720556 2544.905936 2390.543317 L 2665.070551 2415.905542 C 2737.858621 2431.338944 2792.076731 2455.595107 2827.724881 2488.674033 C 2863.373031 2521.752958 2881.197106 2565.866766 2881.197106 2620.989734 C 2881.197106 2656.28078 2874.021179 2688.253645 2859.695047 2716.908328 C 2845.368914 2745.588734 2824.767062 2770.20501 2797.940929 2790.808602 C 2771.114795 2811.386471 2738.964588 2827.179986 2701.464586 2838.214869 C 2663.990304 2849.224029 2621.706352 2854.754331 2574.664168 2854.754331 Z M 2574.664168 2854.754331 " stroke="#000000" stroke-width="79.169998" stroke-opacity="1" stroke-miterlimit="2"></path><path stroke-linecap="butt" transform="matrix(0.151875, 0, 0, 0.151862, 321.250243, 81.002051)" fill-opacity="1" fill="#000000" fill-rule="nonzero" stroke-linejoin="round" d="M 3149.767078 2653.991492 C 3116.073661 2653.991492 3086.032507 2647.483741 3059.643617 2634.442516 C 3033.280447 2621.427013 3012.601433 2603.78149 2997.658017 2581.531669 C 2982.7146 2559.281847 2975.255752 2534.151124 2975.255752 2506.190944 C 2975.255752 2471.851624 2984.15493 2444.663114 3001.953284 2424.651136 C 3019.751639 2404.613436 3048.686826 2390.157482 3088.733124 2381.257554 C 3128.805143 2372.357625 3182.508849 2367.907661 3249.921404 2367.907661 L 3297.606592 2367.907661 L 3297.606592 2436.560578 L 3250.87305 2436.560578 C 3211.444036 2436.560578 3179.962553 2438.464031 3156.454321 2442.296659 C 3132.920369 2446.103565 3116.227982 2452.611316 3106.377158 2461.845635 C 3096.526334 2471.054232 3091.588063 2483.9154 3091.588063 2500.454863 C 3091.588063 2521.44429 3098.91831 2538.601089 3113.527364 2551.950981 C 3128.162139 2565.300874 3148.50679 2571.988682 3174.561318 2571.988682 C 3195.548973 2571.988682 3214.144653 2567.049993 3230.348358 2557.198338 C 3246.577782 2547.346683 3259.437865 2533.842456 3268.980047 2516.659935 C 3278.522228 2499.503136 3283.280459 2479.799826 3283.280459 2457.550005 L 3283.280459 2347.86996 C 3283.280459 2316.077152 3276.284574 2293.184272 3262.318524 2279.217043 C 3248.326754 2265.224092 3224.792802 2258.227616 3191.742389 2258.227616 C 3173.30103 2258.227616 3153.419341 2260.439737 3132.123044 2264.915424 C 3110.826747 2269.365388 3088.424482 2276.9792 3064.89053 2287.782582 C 3052.827773 2293.518663 3042.179624 2295.113448 3032.946084 2292.566936 C 3023.738265 2290.020425 3016.588059 2284.773068 3011.495466 2276.824866 C 3006.402873 2268.876664 3003.856577 2260.131069 3003.856577 2250.588082 C 3003.856577 2241.070818 3006.402873 2231.682165 3011.495466 2222.473568 C 3016.588059 2213.239249 3025.152874 2206.42283 3037.241352 2201.947143 C 3066.485181 2189.883367 3094.623042 2181.292107 3121.629216 2176.199084 C 3148.661111 2171.131784 3173.30103 2168.585272 3195.548973 2168.585272 C 3241.330869 2168.585272 3278.985191 2175.581748 3308.563382 2189.574699 C 3338.115853 2203.541928 3360.209475 2224.685689 3374.84425 2252.98026 C 3389.453304 2281.27483 3396.783551 2317.671937 3396.783551 2362.17158 L 3396.783551 2591.048933 C 3396.783551 2610.777966 3391.9996 2625.876978 3382.457419 2636.345969 C 3372.940957 2646.840682 3359.257829 2652.088039 3341.459474 2652.088039 C 3323.66112 2652.088039 3309.82367 2646.840682 3299.972847 2636.345969 C 3290.122023 2625.876978 3285.183751 2610.777966 3285.183751 2591.048933 L 3285.183751 2545.288896 L 3292.822641 2545.288896 C 3288.373052 2567.538718 3279.628196 2586.779026 3266.588071 2602.984098 C 3253.573667 2619.18917 3237.189922 2631.74167 3217.488275 2640.641599 C 3197.786628 2649.541528 3175.204322 2653.991492 3149.767078 2653.991492 Z M 3149.767078 2653.991492 " stroke="#000000" stroke-width="2.08" stroke-opacity="1" stroke-miterlimit="2"></path><path stroke-linecap="round" transform="matrix(0.151875, 0, 0, 0.151862, 321.250243, 81.002051)" fill-opacity="1" fill="#000000" fill-rule="nonzero" stroke-linejoin="round" d="M 3852.904973 2568.413277 C 3813.913202 2612.424195 3770.1632 2653.991492 3770.1632 2653.991492 L 3533.589114 2298.508796 C 3527.853517 2284.515845 3525.950224 2271.47462 3527.853517 2259.410844 C 3529.782529 2247.321346 3535.646727 2237.624025 3545.49755 2230.318881 C 3555.348374 2223.013737 3568.877181 2219.361165 3586.032532 2219.361165 C 3600.667306 2219.361165 3612.421422 2222.679347 3621.3206 2229.367154 C 3630.219777 2236.02924 3839.91629 2547.42385 3852.904973 2568.413277 Z M 3852.904973 2568.413277 " stroke="#000000" stroke-width="58.330002" stroke-opacity="1" stroke-miterlimit="2"></path><path fill="#000000" d="M 570.546875 430.171875 C 565.542969 430.171875 561.351562 429.355469 557.972656 427.609375 C 554.597656 425.863281 552.152344 423.421875 550.523438 420.042969 C 548.894531 416.785156 548.078125 412.59375 548.078125 407.820312 L 548.078125 383.027344 L 542.023438 383.027344 C 540.164062 383.027344 538.765625 382.5625 537.71875 381.515625 C 536.671875 380.582031 536.203125 379.1875 536.203125 377.554688 C 536.203125 375.808594 536.671875 374.414062 537.71875 373.480469 C 538.765625 372.550781 540.164062 372.085938 542.023438 372.085938 L 548.078125 372.085938 L 548.078125 361.492188 C 548.078125 359.046875 548.660156 357.300781 550.058594 356.019531 C 551.339844 354.742188 553.199219 354.160156 555.414062 354.160156 C 557.742188 354.160156 559.488281 354.742188 560.769531 356.019531 C 562.046875 357.300781 562.628906 359.046875 562.628906 361.492188 L 562.628906 372.085938 L 574.972656 372.085938 C 576.832031 372.085938 578.230469 372.550781 579.277344 373.480469 C 580.324219 374.414062 580.792969 375.808594 580.792969 377.554688 C 580.792969 379.300781 580.324219 380.582031 579.277344 381.515625 C 578.230469 382.445312 576.832031 383.027344 574.972656 383.027344 L 562.628906 383.027344 L 562.628906 407.007812 C 562.628906 410.730469 563.445312 413.527344 565.074219 415.386719 C 566.707031 417.25 569.382812 418.183594 572.992188 418.183594 C 574.273438 418.183594 575.4375 418.066406 576.484375 417.832031 C 577.53125 417.601562 578.347656 417.484375 579.160156 417.367188 C 580.09375 417.25 580.90625 417.601562 581.488281 418.296875 C 582.070312 418.996094 582.421875 420.277344 582.421875 422.257812 C 582.421875 423.769531 582.1875 425.167969 581.605469 426.445312 C 581.140625 427.609375 580.210938 428.425781 578.8125 428.890625 C 577.765625 429.242188 576.484375 429.472656 574.855469 429.824219 C 573.222656 430.054688 571.828125 430.171875 570.546875 430.171875 Z M 570.546875 430.171875 " fill-opacity="1" fill-rule="nonzero"></path><path fill="#000000" d="M 614.550781 430.171875 C 608.613281 430.171875 603.492188 429.007812 599.183594 426.5625 C 594.878906 424.117188 591.5 420.742188 589.058594 416.320312 C 586.613281 411.894531 585.449219 406.65625 585.449219 400.488281 C 585.449219 395.949219 586.148438 391.757812 587.542969 388.148438 C 588.941406 384.539062 590.917969 381.398438 593.363281 378.835938 C 595.925781 376.277344 598.953125 374.296875 602.5625 372.898438 C 606.171875 371.503906 610.128906 370.921875 614.550781 370.804688 C 620.488281 370.804688 625.613281 371.96875 629.917969 374.414062 C 634.226562 376.859375 637.601562 380.234375 640.046875 384.65625 C 642.492188 389.082031 643.65625 394.320312 643.65625 400.371094 C 643.65625 404.910156 642.957031 409.101562 641.5625 412.710938 C 640.164062 416.320312 638.300781 419.460938 635.738281 422.140625 C 633.179688 424.699219 630.152344 426.679688 626.542969 428.078125 C 622.933594 429.472656 618.976562 430.171875 614.550781 430.171875 Z M 614.550781 419.113281 C 617.460938 419.113281 619.90625 418.414062 622.121094 417.019531 C 624.332031 415.621094 625.960938 413.527344 627.242188 410.847656 C 628.40625 408.054688 629.105469 404.679688 629.105469 400.605469 C 629.105469 394.433594 627.824219 389.777344 625.144531 386.753906 C 622.46875 383.726562 618.976562 382.097656 614.667969 382.097656 C 611.757812 382.097656 609.3125 382.792969 607.101562 384.191406 C 604.890625 385.589844 603.261719 387.566406 601.980469 390.359375 C 600.816406 393.15625 600.234375 396.53125 600.234375 400.722656 C 600.234375 406.890625 601.511719 411.429688 604.191406 414.574219 C 606.867188 417.714844 610.359375 419.230469 614.667969 419.230469 Z M 614.550781 419.113281 " fill-opacity="1" fill-rule="nonzero"></path><g mask="url(#d1821f5f68)"><g transform="matrix(0.151875, 0, 0, 0.151862, 432.594656, 537.528155)"><image x="0" y="0" width="2326" height="173" preserveAspectRatio="xMidYMid meet"></image></g></g><path fill="#000000" d="M 742.414062 264.789062 C 740.675781 264.789062 739.082031 264.210938 737.777344 262.90625 C 736.472656 261.601562 735.75 260.007812 735.605469 257.835938 L 732.851562 231.042969 C 732.5625 228.003906 733.289062 225.539062 735.171875 223.511719 C 737.054688 221.484375 739.371094 220.472656 742.414062 220.472656 C 744.296875 220.472656 746.035156 220.90625 747.625 221.773438 C 749.074219 222.644531 750.234375 223.949219 750.957031 225.539062 C 751.683594 227.132812 751.972656 228.871094 751.828125 230.898438 L 749.074219 257.691406 C 748.929688 259.863281 748.207031 261.457031 746.902344 262.761719 C 745.742188 264.0625 744.152344 264.644531 742.269531 264.644531 Z M 742.414062 264.789062 " fill-opacity="1" fill-rule="nonzero"></path></svg>