<svg xmlns="http://www.w3.org/2000/svg" xmlns:xlink="http://www.w3.org/1999/xlink" width="331" zoomAndPan="magnify" viewBox="477 110 331 538" height="538" preserveAspectRatio="xMidYMid meet" version="1.0"><path stroke-linecap="butt" transform="matrix(0.189141, 0, 0, 0.189126, 96.767454, 0.00002)" fill-opacity="1" fill="#000000" fill-rule="evenodd" stroke-linejoin="round" d="M 3038.117065 2498.811508 C 3035.039822 2482.949054 2997.927034 2394.383684 2973.081912 2362.204382 C 2968.930733 2355.884185 2966.060016 2351.918571 2962.941468 2349.502026 C 2932.850577 2312.799446 2889.955051 2266.410028 2889.955051 2266.410028 C 2866.720835 2240.426997 2902.862949 2278.430794 2809.203242 2195.070292 C 2841.297439 2162.436597 2866.782793 2152.31602 2890.553977 2148.846108 C 2899.290042 2147.565546 3169.777622 2317.673846 3175.395139 2524.587997 C 3182.065941 2770.724545 2892.949683 2886.367621 2718.166421 2753.416294 C 2612.734712 2673.236544 2323.143444 2341.322948 2741.235416 2024.280402 C 2927.914597 1882.736913 3172.607033 1791.940885 3372.318027 1591.408893 C 3381.714977 1581.969906 3431.694357 1531.780109 3470.851756 1457.156349 C 3569.5094 1269.140825 3531.942254 1118.674705 3514.779914 1072.63641 C 3497.679531 1026.763348 3483.904222 1001.957609 3460.649353 971.678497 C 3437.249916 941.213497 3381.301924 896.393801 3374.383291 889.846408 C 3374.341986 891.746598 3411.950437 1061.978823 3261.124233 1224.672252 C 3190.760701 1300.55592 2930.826618 1483.036109 2914.221899 1500.365014 C 2885.659302 1521.45299 2797.307324 1607.47789 2797.307324 1607.47789 C 2660.731439 1756.787372 2695.200689 1897.070953 2701.499743 1922.661554 C 2707.902061 1948.76851 2717.732716 1964.279842 2724.155686 1990.386798 C 2691.276688 2014.118517 2686.19614 2018.579833 2647.307225 2049.705768 C 2552.594235 1904.361899 2560.5455 1664.421622 2710.049935 1517.156909 C 2835.721228 1393.376064 3206.394746 1150.213726 3276.407184 923.326927 C 3371.264743 615.867948 2394.126555 708.275006 2304.019103 1094.302705 C 2261.825766 1275.027283 2443.754841 1414.773854 2419.632561 1464.695146 C 2372.93695 1561.398286 1978.430289 1434.78781 2050.42538 1122.557702 C 2124.093334 803.036648 2765.440306 458.234807 3333.222587 693.548535 C 3809.596299 890.982391 3961.372524 1462.299254 3205.651251 1921.27772 C 2907.055434 2102.621925 2685.514603 2157.995936 2626.757852 2337.150792 C 2617.092418 2366.645043 2560.215057 2540.037366 2762.548937 2700.5621 C 2863.437066 2780.597271 3040.636686 2772.74866 3042.061718 2534.171563 C 3042.123676 2522.316031 3040.987781 2510.336573 3038.117065 2498.811508 Z M 3038.117065 2498.811508 " stroke="#000000" stroke-width="12.5" stroke-opacity="1" stroke-miterlimit="2"></path><path stroke-linecap="butt" transform="matrix(0.189141, 0, 0, 0.189126, 96.767454, 0.00002)" fill-opacity="1" fill="#000000" fill-rule="evenodd" stroke-linejoin="round" d="M 2677.460075 2464.670054 C 2678.162264 2464.608091 2704.411765 2463.513417 2741.070195 2460.146776 C 2777.749277 2456.780135 2825.56013 2452.17424 2847.328009 2449.943583 C 2869.095888 2447.712925 2909.409834 2443.871237 2936.898493 2441.434037 C 2952.202097 2440.050203 3046.729214 2428.896915 3046.729214 2428.896915 C 3046.729214 2428.896915 3075.477684 2433.915894 3078.100569 2453.227606 C 3080.991938 2474.708013 3071.202588 2480.842322 3068.207956 2489.207288 C 3035.205043 2491.231403 2932.602745 2504.18161 2873.329678 2510.047414 C 2784.543994 2518.80481 2730.392782 2524.3608 2693.383257 2524.587997 C 2681.673212 2507.403671 2679.77317 2487.534295 2677.460075 2464.670054 Z M 2677.460075 2464.670054 " stroke="#000000" stroke-width="12.5" stroke-opacity="1" stroke-miterlimit="2"></path><path stroke-linecap="butt" transform="matrix(0.189141, 0, 0, 0.189126, 96.767454, 0.00002)" fill-opacity="1" fill="#000000" fill-rule="evenodd" stroke-linejoin="round" d="M 2751.004113 2620.816089 C 2766.390327 2619.328984 2763.788095 2620.650855 2797.018187 2616.458045 C 2852.986832 2609.373642 3069.839514 2587.542113 3071.264546 2588.967255 C 3072.689578 2590.392397 3086.134444 2597.249604 3089.273645 2609.187754 C 3094.643331 2629.511523 3069.240588 2637.318825 3066.638356 2639.962567 C 3064.036123 2642.60631 2970.975344 2650.950622 2951.499907 2653.42913 C 2932.003819 2655.907639 2797.575808 2669.043734 2797.575808 2669.043734 C 2797.575808 2669.043734 2765.667485 2645.952296 2751.004113 2620.816089 Z M 2751.004113 2620.816089 " stroke="#000000" stroke-width="12.5" stroke-opacity="1" stroke-miterlimit="2"></path><path stroke-linecap="butt" transform="matrix(0.189141, 0, 0, 0.189126, 96.767454, 0.00002)" fill-opacity="1" fill="#000000" fill-rule="evenodd" stroke-linejoin="round" d="M 2979.401619 2339.794534 C 2963.251258 2341.260985 2885.081029 2351.877263 2865.047971 2353.818761 C 2839.273481 2356.359232 2720.809958 2366.913548 2665.853293 2372.304304 C 2658.748786 2347.374639 2682.168876 2310.320937 2682.168876 2310.320937 C 2703.730228 2309.308879 2809.781516 2297.040262 2842.846387 2293.529042 C 2856.952138 2292.041937 2924.279733 2282.169211 2934.83323 2280.826686 C 2999.166192 2276.633876 3001.479288 2313.811503 2979.401619 2339.794534 Z M 2979.401619 2339.794534 " stroke="#000000" stroke-width="12.5" stroke-opacity="1" stroke-miterlimit="2"></path><path stroke-linecap="butt" transform="matrix(0.189141, 0, 0, 0.189126, 96.767454, 0.00002)" fill-opacity="1" fill="#000000" fill-rule="evenodd" stroke-linejoin="round" d="M 3172.132022 1690.466616 C 3034.977864 1646.452436 2977.914629 1628.152781 2926.510217 1611.298924 L 2792.660481 1559.064357 C 2761.227168 1515.174102 2819.343687 1457.011769 2878.03848 1489.356305 C 2898.133495 1495.779773 2990.017074 1533.866187 3020.231881 1543.263865 C 3075.229852 1560.365574 3117.526452 1574.926811 3170.23198 1590.871883 C 3198.422829 1599.402083 3245.779324 1611.319578 3265.068886 1616.710334 C 3246.440208 1643.20972 3214.449274 1666.858822 3172.132022 1690.466616 Z M 3172.132022 1690.466616 " stroke="#000000" stroke-width="12.5" stroke-opacity="1" stroke-miterlimit="2"></path><path stroke-linecap="butt" transform="matrix(0.189141, 0, 0, 0.189126, 96.767454, 0.00002)" fill-opacity="1" fill="#000000" fill-rule="evenodd" stroke-linejoin="round" d="M 3367.258131 1495.531922 C 3353.007812 1491.049953 3048.877088 1396.763359 3004.577183 1377.720152 C 2965.626311 1333.292887 3001.314066 1295.578249 3061.475196 1313.402856 L 3415.998353 1419.792834 C 3407.035109 1446.209603 3399.662118 1469.652163 3367.237479 1495.531922 Z M 3367.258131 1495.531922 " stroke="#000000" stroke-width="12.5" stroke-opacity="1" stroke-miterlimit="2"></path><path stroke-linecap="butt" transform="matrix(0.189141, 0, 0, 0.189126, 96.767454, 0.00002)" fill-opacity="1" fill="#000000" fill-rule="evenodd" stroke-linejoin="round" d="M 3482.974853 1266.621008 C 3477.811694 1266.104652 3195.056449 1209.615313 3195.056449 1209.615313 C 3195.056449 1209.615313 3175.766886 1186.461913 3186.712784 1164.361878 C 3197.823902 1141.952031 3232.74751 1143.542407 3232.74751 1143.542407 C 3244.870608 1144.616427 3406.890541 1174.461801 3495.655572 1186.689109 C 3500.1785 1220.293554 3495.428393 1250.035656 3482.974853 1266.621008 Z M 3482.974853 1266.621008 " stroke="#000000" stroke-width="12.5" stroke-opacity="1" stroke-miterlimit="2"></path><path stroke-linecap="butt" transform="matrix(0.189141, 0, 0, 0.189126, 96.767454, 0.00002)" fill-opacity="1" fill="#000000" fill-rule="evenodd" stroke-linejoin="round" d="M 3470.170219 1076.560715 C 3376.613776 1075.362769 3303.854538 1061.173308 3303.193653 1061.090691 C 3298.567463 1060.574335 3288.881376 1042.852999 3292.82603 1026.825311 C 3299.971842 997.661528 3317.795067 996.463582 3317.795067 996.463582 L 3432.665031 1003.382751 C 3435.762927 1007.90603 3470.810451 1038.08187 3470.170219 1076.560715 Z M 3470.170219 1076.560715 " stroke="#000000" stroke-width="12.5" stroke-opacity="1" stroke-miterlimit="2"></path><path stroke-linecap="butt" transform="matrix(0.189141, 0, 0, 0.189126, 96.767454, 0.00002)" fill-opacity="1" fill="#000000" fill-rule="evenodd" stroke-linejoin="round" d="M 2874.403616 3397.869812 C 2851.499842 3398.654673 2822.42093 3397.539344 2809.822821 3395.370649 C 2797.224713 3393.201954 2771.223044 3383.721659 2752.057397 3374.303327 C 2727.191623 3362.096673 2709.161871 3349.270391 2689.066856 3329.504286 C 2669.963168 3310.70893 2656.043291 3292.120116 2645.737625 3271.631113 C 2637.39396 3255.025106 2627.811137 3229.70301 2624.424104 3215.36897 C 2621.037072 3201.034929 2618.290271 3178.067417 2618.290271 3164.311695 C 2618.290271 3150.576627 2620.830545 3128.497247 2623.949094 3115.257881 C 2627.067642 3102.039169 2635.638486 3078.947731 2643.03213 3063.952755 C 2650.405121 3048.957778 2667.71203 3024.668395 2681.466686 3009.962578 C 2695.221342 2995.236107 2717.2164 2976.04832 2730.330824 2967.290923 C 2743.445248 2958.533526 2768.104496 2946.863882 2785.122268 2941.349201 C 2810.277179 2933.190777 2825.043815 2931.290587 2863.994687 2931.146008 C 2902.780338 2931.022082 2916.948047 2932.736384 2938.385483 2940.130601 C 2952.966245 2945.149581 2975.374355 2955.456045 2988.199642 2963.03615 C 3001.02493 2970.616255 3022.958029 2988.296283 3036.960517 3002.341164 C 3051.644541 3017.067636 3068.86884 3040.159073 3077.687516 3056.930314 C 3086.093139 3072.937348 3095.799878 3098.011592 3099.248868 3112.676101 C 3102.697859 3127.319955 3105.568575 3149.791766 3105.589228 3162.618047 C 3105.630533 3175.423674 3101.954364 3200.415302 3097.410784 3218.136637 C 3092.887856 3235.857973 3083.98657 3259.982123 3077.625558 3271.755038 C 3071.264546 3283.527953 3054.825047 3305.256211 3041.070392 3320.023991 C 3027.315736 3334.812425 3006.126131 3353.297968 2993.982381 3361.105269 C 2981.817978 3368.891917 2959.327257 3380.045205 2943.982348 3385.849046 C 2922.544911 3393.986815 2906.394549 3396.775138 2874.403616 3397.869812 Z M 2874.403616 3397.869812 " stroke="#000000" stroke-width="12.5" stroke-opacity="1" stroke-miterlimit="2"></path><path stroke-linecap="butt" transform="matrix(0.189141, 0, 0, 0.189126, 96.767454, 0.00002)" fill-opacity="1" fill="#000000" fill-rule="evenodd" stroke-linejoin="round" d="M 2786.898395 1945.835608 C 2786.898395 1945.835608 2636.154802 1888.540753 2633.428654 1885.835048 C 2622.379493 1874.785031 2637.745055 1847.748634 2654.267164 1842.564421 C 2660.318386 1840.643577 2835.824491 1907.749194 2835.824491 1907.749194 C 2835.824491 1907.749194 2808.666274 1927.453337 2786.898395 1945.835608 Z M 2786.898395 1945.835608 " stroke="#000000" stroke-width="12.5" stroke-opacity="1" stroke-miterlimit="2"></path><path stroke-linecap="butt" transform="matrix(0.189141, 0, 0, 0.189126, 96.767454, 0.00002)" fill-opacity="1" fill="#000000" fill-rule="evenodd" stroke-linejoin="round" d="M 2951.499907 1842.543766 C 2951.499907 1842.543766 2921.470974 1833.455902 2897.328042 1824.409346 C 2873.267721 1815.404098 2841.586576 1805.035671 2801.499809 1791.197332 C 2761.392389 1777.358993 2668.02182 1742.928379 2665.336977 1740.181365 C 2661.557544 1736.298369 2647.162657 1719.444511 2658.604217 1694.618118 C 2672.503442 1664.442277 2690.801678 1670.84509 2701.00408 1673.179019 C 2706.993345 1674.542199 2803.998778 1707.795521 2845.242093 1721.63386 C 2886.485408 1735.472199 2951.892307 1757.696159 2990.574696 1771.018142 C 3029.257084 1784.360779 3039.149696 1788.202468 3040.574728 1789.751535 C 3041.99976 1791.279949 3014.717628 1805.242214 2995.242191 1817.056437 C 2979.360314 1826.681312 2951.499907 1842.543766 2951.499907 1842.543766 Z M 2951.499907 1842.543766 " stroke="#000000" stroke-width="12.5" stroke-opacity="1" stroke-miterlimit="2"></path><path stroke-linecap="round" transform="matrix(0.189141, 0, 0, 0.189126, 96.767454, 0.00002)" fill-opacity="1" fill="#000000" fill-rule="nonzero" stroke-linejoin="round" d="M 2584.709084 1266.393812 C 2584.709084 1273.8913 2584.337337 1281.388788 2583.593842 1288.844968 C 2582.850347 1296.321802 2581.714452 1303.736673 2580.227462 1311.089582 C 2578.740472 1318.44249 2576.881735 1325.733436 2574.671903 1332.900456 C 2572.441418 1340.088131 2569.880491 1347.15188 2566.947817 1354.07105 C 2564.035795 1361.010874 2560.772679 1367.785464 2557.158467 1374.415474 C 2553.564909 1381.02483 2549.640908 1387.448298 2545.386465 1393.685877 C 2541.152674 1399.944111 2536.609094 1405.954494 2531.755724 1411.758335 C 2526.902355 1417.562176 2521.780501 1423.118166 2516.36951 1428.426305 C 2510.979172 1433.734444 2505.32035 1438.753424 2499.413696 1443.524552 C 2493.507042 1448.275027 2487.373209 1452.756997 2481.012197 1456.908498 C 2474.671837 1461.080654 2468.124952 1464.942997 2461.37154 1468.474871 C 2454.63878 1472.006746 2447.740799 1475.228807 2440.677598 1478.099746 C 2433.614396 1480.970685 2426.427279 1483.490502 2419.116245 1485.679851 C 2411.805212 1487.848546 2404.390916 1489.666119 2396.914661 1491.13257 C 2389.417754 1492.599021 2381.858889 1493.693695 2374.258719 1494.437248 C 2366.658549 1495.160146 2359.017073 1495.531922 2351.375598 1495.531922 C 2343.734122 1495.531922 2336.1133 1495.160146 2328.513129 1494.437248 C 2320.912959 1493.693695 2313.354094 1492.599021 2305.857187 1491.13257 C 2298.36028 1489.666119 2290.966636 1487.848546 2283.655603 1485.679851 C 2276.34457 1483.490502 2269.157452 1480.970685 2262.094251 1478.099746 C 2255.031049 1475.228807 2248.133068 1472.006746 2241.400309 1468.474871 C 2234.646897 1464.942997 2228.100011 1461.080654 2221.759652 1456.908498 C 2215.39864 1452.756997 2209.264807 1448.275027 2203.358153 1443.524552 C 2197.451499 1438.753424 2191.792676 1433.734444 2186.402338 1428.426305 C 2180.991347 1423.118166 2175.869493 1417.562176 2171.016124 1411.758335 C 2166.162754 1405.954494 2161.619174 1399.944111 2157.364731 1393.685877 C 2153.130941 1387.448298 2149.20694 1381.02483 2145.592728 1374.415474 C 2141.99917 1367.785464 2138.736053 1361.010874 2135.803379 1354.07105 C 2132.891357 1347.15188 2130.309777 1340.088131 2128.099945 1332.900456 C 2125.869461 1325.733436 2124.031376 1318.44249 2122.544386 1311.089582 C 2121.036744 1303.736673 2119.921501 1296.321802 2119.178006 1288.844968 C 2118.434511 1281.388788 2118.042111 1273.8913 2118.042111 1266.393812 C 2118.042111 1258.875669 2118.434511 1251.398835 2119.178006 1243.922001 C 2119.921501 1236.465822 2121.036744 1229.05095 2122.544386 1221.677388 C 2124.031376 1214.324479 2125.869461 1207.054187 2128.099945 1199.866513 C 2130.309777 1192.678838 2132.891357 1185.635743 2135.803379 1178.695919 C 2138.736053 1171.756096 2141.99917 1164.981506 2145.592728 1158.37215 C 2149.20694 1151.742139 2153.130941 1145.318672 2157.364731 1139.081092 C 2161.619174 1132.843512 2166.162754 1126.812475 2171.016124 1121.008634 C 2175.869493 1115.204793 2180.991347 1109.669458 2186.402338 1104.361319 C 2191.792676 1099.05318 2197.451499 1094.013546 2203.358153 1089.242417 C 2209.264807 1084.491942 2215.39864 1080.030627 2221.759652 1075.858471 C 2228.100011 1071.686315 2234.646897 1067.823972 2241.400309 1064.292098 C 2248.133068 1060.760223 2255.031049 1057.558816 2262.094251 1054.687877 C 2269.157452 1051.816938 2276.34457 1049.276467 2283.655603 1047.107772 C 2290.966636 1044.918423 2298.36028 1043.10085 2305.857187 1041.634399 C 2313.354094 1040.167948 2320.912959 1039.073274 2328.513129 1038.350376 C 2336.1133 1037.606823 2343.734122 1037.235047 2351.375598 1037.235047 C 2359.017073 1037.235047 2366.658549 1037.606823 2374.258719 1038.350376 C 2381.858889 1039.073274 2389.417754 1040.167948 2396.914661 1041.634399 C 2404.390916 1043.10085 2411.805212 1044.918423 2419.116245 1047.107772 C 2426.427279 1049.276467 2433.614396 1051.816938 2440.677598 1054.687877 C 2447.740799 1057.558816 2454.63878 1060.760223 2461.37154 1064.292098 C 2468.124952 1067.823972 2474.671837 1071.686315 2481.012197 1075.858471 C 2487.373209 1080.030627 2493.507042 1084.491942 2499.413696 1089.242417 C 2505.32035 1094.013546 2510.979172 1099.05318 2516.36951 1104.361319 C 2521.780501 1109.669458 2526.902355 1115.204793 2531.755724 1121.008634 C 2536.609094 1126.812475 2541.152674 1132.843512 2545.386465 1139.081092 C 2549.640908 1145.318672 2553.564909 1151.742139 2557.158467 1158.37215 C 2560.772679 1164.981506 2564.035795 1171.756096 2566.947817 1178.695919 C 2569.880491 1185.635743 2572.441418 1192.678838 2574.671903 1199.866513 C 2576.881735 1207.054187 2578.740472 1214.324479 2580.227462 1221.677388 C 2581.714452 1229.05095 2582.850347 1236.465822 2583.593842 1243.922001 C 2584.337337 1251.398835 2584.709084 1258.875669 2584.709084 1266.393812 Z M 2584.709084 1266.393812 " stroke="#000000" stroke-width="12.5" stroke-opacity="1" stroke-miterlimit="1.5"></path></svg>